<svg version="1.1" id="Layer_1" xmlns="http://www.w3.org/2000/svg" xmlns:xlink="http://www.w3.org/1999/xlink" x="0px" y="0px"
	 width="100%" viewBox="0 0 453 50" enable-background="new 0 0 453 50" xml:space="preserve">
<path fill="#000000" opacity="1.000000" stroke="none" 
	d="
M434.000916,51.000000 
	C289.334076,51.000000 145.167465,51.000000 1.000643,51.000000 
	C1.000428,34.333626 1.000428,17.667250 1.000214,1.000656 
	C151.999649,1.000437 302.999298,1.000437 453.999207,1.000219 
	C453.999481,17.666315 453.999481,34.332630 453.999756,50.999474 
	C447.500366,51.000000 441.000763,51.000000 434.000916,51.000000 
M51.280617,25.333662 
	C51.163181,25.201727 51.045750,25.069792 51.011421,24.078310 
	C51.011642,22.579344 51.397610,20.940880 50.918262,19.615341 
	C50.261402,17.798952 48.947708,16.220095 47.915516,14.539441 
	C45.984371,15.884966 44.011841,17.178123 42.168606,18.634882 
	C41.905048,18.843178 42.210133,20.383726 42.347523,20.398149 
	C47.574482,20.946854 44.498508,24.855047 44.882618,27.112606 
	C45.552914,31.052246 45.498856,35.115128 45.748383,39.126358 
	C46.325161,39.198563 46.901943,39.270767 47.478722,39.342972 
	C49.327728,37.941799 51.176731,36.540630 53.097115,35.085369 
	C49.225792,32.166569 53.042076,30.643463 53.155220,28.489689 
	C54.075279,32.176365 54.917847,35.552536 55.760418,38.928711 
	C57.901203,37.755245 60.041988,36.581779 61.192677,35.951031 
	C60.249882,30.695717 59.471470,26.356710 58.441761,20.616924 
	C55.535099,22.800409 53.568516,24.277706 51.280617,25.333662 
M287.132843,28.660635 
	C288.898315,27.608978 290.663757,26.557323 292.535645,25.442270 
	C287.840942,20.323771 286.479889,20.751459 280.409241,28.242880 
	C279.953491,23.715866 279.477814,18.990704 278.958496,13.832422 
	C276.931946,14.666320 275.942780,14.854365 275.242126,15.407695 
	C273.826111,16.525949 272.566742,17.842514 271.887665,18.475840 
	C272.786011,20.510103 273.778931,21.865503 273.937439,23.312323 
	C274.225098,25.937468 273.696381,28.667330 274.104248,31.259729 
	C274.511993,33.851093 275.649261,36.327667 276.466736,38.854561 
	C278.436920,37.992085 280.407104,37.129604 282.479462,36.222401 
	C286.985626,40.216515 287.365570,40.155659 290.286774,35.621426 
	C288.659912,33.187405 287.287262,31.133739 286.267395,28.664045 
	C286.372986,28.516024 286.478577,28.368002 287.132843,28.660635 
M209.999481,27.618738 
	C210.999039,30.651459 211.876419,33.731670 213.031754,36.703842 
	C214.240936,39.814518 215.930099,39.970142 217.958237,37.222958 
	C219.157562,35.598434 220.598831,34.152531 222.459229,32.021618 
	C222.788895,33.630363 222.840378,34.247250 223.042389,34.810104 
	C224.778488,39.647049 225.999344,40.232597 229.560211,36.697060 
	C232.144928,34.130745 234.480942,30.810205 235.574371,27.392891 
	C236.587769,24.225803 235.805054,20.484005 235.813248,16.995277 
	C232.447891,17.598560 229.082550,18.201843 225.768433,18.795942 
	C224.094376,18.388142 221.743851,17.012667 220.237473,17.645752 
	C218.218826,18.494122 216.853531,20.897095 215.807785,21.999825 
	C214.502426,20.456718 212.821838,17.176723 211.647751,17.348980 
	C209.135010,17.717636 206.884186,19.871365 204.988419,21.015055 
	C207.096878,23.470501 208.531281,25.140955 209.999481,27.618738 
M22.224043,39.011898 
	C27.553938,39.545292 30.470211,35.769997 32.644054,32.082691 
	C33.395069,30.808805 30.979443,27.668030 30.333134,26.142197 
	C30.481819,23.571959 31.364944,21.064585 30.554363,19.364981 
	C29.299248,16.733294 26.807161,15.802821 24.048372,18.270813 
	C23.636440,18.639326 22.145033,17.534916 21.282013,17.718466 
	C19.208532,18.159458 17.080139,18.729532 15.266229,19.761404 
	C14.740350,20.060558 15.154768,22.102404 15.223098,23.340672 
	C15.504810,28.445858 15.819190,33.549244 16.142799,39.011795 
	C17.369434,39.011795 19.349493,39.011795 22.224043,39.011898 
M327.001465,21.088921 
	C327.795746,27.045225 325.385590,33.406078 328.977173,39.561993 
	C331.301422,38.050385 333.160339,36.841431 335.019257,35.632477 
	C334.589294,35.480251 334.159363,35.328026 333.729401,35.175804 
	C334.129547,32.921871 334.529663,30.667942 335.147705,27.186623 
	C336.132141,32.155140 336.826569,35.659966 337.694550,40.040764 
	C340.662964,37.884735 342.413910,36.612988 342.979126,36.202450 
	C342.551331,32.734978 342.433472,30.361868 341.924530,28.075823 
	C341.466614,26.018883 340.579742,24.057449 339.882050,22.053894 
	C338.003174,23.149191 336.100769,24.207281 334.264801,25.370325 
	C333.885223,25.610785 333.753052,26.241762 333.192535,27.268532 
	C332.586029,22.234715 334.403778,17.228338 329.402557,14.362361 
	C327.530945,15.991660 325.759460,17.533787 323.573975,19.436308 
	C324.971710,19.793699 325.867279,20.022692 327.001465,21.088921 
M386.028931,24.281799 
	C384.332764,22.367311 384.332764,22.367311 379.057404,26.132307 
	C379.791534,28.157299 380.509216,29.869967 381.025391,31.641365 
	C381.474213,33.181568 381.660126,34.796326 382.024628,36.363625 
	C382.691559,39.231087 384.114685,39.996334 386.520905,37.916683 
	C387.362091,37.189667 388.243134,36.508778 389.125305,35.791084 
	C392.293060,40.410717 392.616333,40.369907 396.105774,36.108665 
	C395.628845,32.993538 395.404175,30.830893 394.945953,28.718925 
	C394.437042,26.373331 393.715057,24.073957 393.173584,22.077785 
	C390.262695,23.287352 388.320129,24.094557 386.028931,24.281799 
M122.536842,38.036110 
	C124.834633,38.036110 127.132431,38.036110 130.018478,38.036110 
	C133.174911,41.750668 134.236984,35.408363 136.080505,35.650307 
	C135.667160,33.183434 135.320663,31.059956 134.954025,28.939962 
	C134.385025,25.649925 133.508163,22.453741 129.475632,22.095072 
	C125.373329,21.730196 122.732109,23.835129 120.448753,28.361633 
	C122.382034,27.636818 123.205795,27.175247 124.079231,27.043831 
	C124.938469,26.914549 125.848091,27.120201 127.050941,27.199736 
	C120.613312,32.477016 120.392303,32.943272 122.536842,38.036110 
M367.717010,26.248577 
	C365.576324,24.844818 363.327637,22.176538 361.321533,22.347929 
	C358.635193,22.577429 356.136780,25.006214 353.557648,26.490665 
	C353.780090,26.874472 354.002563,27.258276 354.225006,27.642080 
	C356.334106,27.402729 358.443207,27.163376 361.476166,26.819180 
	C354.229645,31.294851 352.444489,34.100269 355.209290,37.005913 
	C356.549072,38.413925 359.799957,38.003498 363.428009,38.631374 
	C366.102325,40.324299 367.913940,37.318295 368.643219,34.997498 
	C368.408173,32.353058 368.173157,29.708624 367.717010,26.248577 
M260.738464,26.240810 
	C258.585419,24.834028 256.319275,22.154114 254.307068,22.332863 
	C251.605896,22.572817 249.100952,25.021984 246.511780,26.522747 
	C246.728790,26.911823 246.945786,27.300901 247.162796,27.689978 
	C249.294693,27.428471 251.426605,27.166964 254.386612,26.803879 
	C247.067841,31.486904 245.462646,33.960567 248.204254,36.945152 
	C249.510178,38.366806 252.729950,38.030411 255.082779,38.490376 
	C259.080505,40.493401 260.699005,36.729359 261.734222,36.077396 
	C261.412811,32.327229 261.186951,29.691532 260.738464,26.240810 
M74.523033,23.992777 
	C73.576042,25.010592 72.629051,26.028406 70.802681,27.991364 
	C74.171104,27.503693 75.841980,27.261787 78.440971,26.885513 
	C77.315697,28.075867 77.047760,28.563913 76.639854,28.758400 
	C73.402016,30.302156 70.841354,32.537785 72.265900,36.366238 
	C73.614174,39.989693 76.421387,39.257671 79.042847,37.461353 
	C79.178375,37.368481 79.287743,37.237419 79.409286,37.124142 
	C83.669563,41.952820 85.115189,35.968876 86.824150,35.612640 
	C86.118896,33.038460 85.172997,31.025829 85.078140,28.973854 
	C84.774773,22.411209 80.890518,20.162758 74.523033,23.992777 
M146.395264,25.998577 
	C149.341934,25.467598 148.914948,27.489565 149.075653,29.322731 
	C149.361511,32.583229 149.885529,35.822845 150.457214,40.198540 
	C154.127487,37.697128 156.477127,36.095772 159.214142,34.230419 
	C157.612991,33.545162 156.371857,33.013981 153.980209,31.990404 
	C155.518661,28.686043 157.013931,25.474380 158.507889,22.265564 
	C157.651382,22.155409 156.533569,22.011650 155.734985,21.908949 
	C154.742416,19.431355 153.822464,17.135052 152.714127,14.368504 
	C150.265945,16.968996 148.422562,18.927071 146.676849,20.781395 
	C147.180466,20.932844 147.983047,21.174200 148.650787,21.375004 
	C147.568604,23.001234 146.608994,24.443283 146.395264,25.998577 
M436.961945,22.069834 
	C435.368866,23.484343 433.624084,24.763693 432.216614,26.343555 
	C429.833832,29.018133 430.804108,34.231010 433.848389,37.393940 
	C436.981842,40.649532 439.020905,38.128914 441.260864,36.253372 
	C442.180298,35.483578 443.124237,34.743050 444.057037,33.989189 
	C443.960938,33.718399 443.864838,33.447609 443.768707,33.176819 
	C442.224518,33.387409 440.680298,33.598000 437.794708,33.991524 
	C440.454102,31.142164 442.293823,29.171028 445.175842,26.083160 
	C442.347107,24.544106 440.044037,23.291058 436.961945,22.069834 
M97.899292,27.985832 
	C98.277069,29.583395 98.597725,31.197206 99.046478,32.774582 
	C99.664864,34.948231 100.379990,37.094360 101.200333,39.722038 
	C103.715981,37.852718 105.371162,36.622795 106.032303,36.131516 
	C105.506935,32.737701 105.106705,30.152248 104.583832,26.774555 
	C108.564598,30.836945 110.160294,27.975744 111.783585,26.295227 
	C110.120766,19.297407 104.375999,25.008574 101.806190,22.163778 
	C100.050774,23.395029 98.482491,24.292454 97.209572,25.500977 
	C96.781075,25.907795 97.102974,27.104996 97.899292,27.985832 
M309.819305,38.694012 
	C311.599884,37.071896 313.380463,35.449783 315.756531,33.285160 
	C308.817780,33.715225 307.280365,32.371246 307.466278,28.263506 
	C310.174072,27.826475 312.635254,27.429243 315.406403,26.981989 
	C313.694305,23.028929 311.602783,20.947245 308.360596,22.377600 
	C304.567566,24.050968 301.101105,26.554762 302.052368,31.581635 
	C302.782684,35.440910 303.767273,39.340744 309.819305,38.694012 
M409.021484,29.890255 
	C409.514618,32.890137 410.007782,35.890015 410.500916,38.889896 
	C412.559082,37.798912 414.626007,36.723602 416.660370,35.589909 
	C416.840973,35.489292 416.809723,35.008560 416.876862,34.704372 
	C416.541901,34.817410 416.206909,34.930450 415.871918,35.043491 
	C415.122589,32.850040 414.373260,30.656588 414.097748,29.850037 
	C417.581024,28.430445 419.939941,27.469091 422.298828,26.507740 
	C422.248383,25.729395 422.197906,24.951050 422.147430,24.172705 
	C418.697418,23.474745 415.198090,22.088854 411.815491,22.331289 
	C409.714142,22.481895 407.789642,25.099768 405.549622,26.788246 
	C407.064331,27.778950 408.028412,28.409496 409.021484,29.890255 
M170.206421,28.743002 
	C170.463821,29.649462 170.771576,30.545111 170.968887,31.464468 
	C171.498596,33.932468 171.981049,36.410610 172.482269,38.884720 
	C174.702026,37.784359 176.921799,36.683998 178.256912,36.022160 
	C177.323303,33.457890 176.341766,31.667519 176.058182,29.772692 
	C175.623840,26.870573 176.890350,23.362310 171.927612,21.828064 
	C170.941818,23.050770 169.666763,24.401186 168.729782,25.955406 
	C168.492859,26.348392 169.334824,27.391808 170.206421,28.743002 
z"/>
<path fill="#F7F8F8" opacity="1.000000" stroke="none" 
	d="
M209.982574,27.215073 
	C208.531281,25.140955 207.096878,23.470501 204.988419,21.015055 
	C206.884186,19.871365 209.135010,17.717636 211.647751,17.348980 
	C212.821838,17.176723 214.502426,20.456718 215.807785,21.999825 
	C216.853531,20.897095 218.218826,18.494122 220.237473,17.645752 
	C221.743851,17.012667 224.094376,18.388142 225.768433,18.795942 
	C229.082550,18.201843 232.447891,17.598560 235.813263,16.995277 
	C235.805054,20.484005 236.587769,24.225803 235.574371,27.392891 
	C234.480942,30.810205 232.144928,34.130745 229.560211,36.697060 
	C225.999344,40.232597 224.778488,39.647049 223.042389,34.810104 
	C222.840378,34.247250 222.788895,33.630363 222.459229,32.021618 
	C220.598831,34.152531 219.157562,35.598434 217.958237,37.222958 
	C215.930099,39.970142 214.240936,39.814518 213.031754,36.703842 
	C211.876419,33.731670 210.999039,30.651459 209.982574,27.215073 
M230.966080,27.184217 
	C231.345947,25.198069 231.725830,23.211920 232.172989,20.874016 
	C229.733185,21.115322 227.939072,21.292767 225.880539,21.496363 
	C227.047440,24.682241 228.155624,27.707800 229.445679,31.229912 
	C229.987549,29.682043 230.300095,28.789299 230.966080,27.184217 
z"/>
<path fill="#F6F7F5" opacity="1.000000" stroke="none" 
	d="
M21.776798,39.011848 
	C19.349493,39.011795 17.369434,39.011795 16.142799,39.011795 
	C15.819190,33.549244 15.504810,28.445858 15.223098,23.340672 
	C15.154768,22.102404 14.740350,20.060558 15.266229,19.761404 
	C17.080139,18.729532 19.208532,18.159458 21.282013,17.718466 
	C22.145033,17.534916 23.636440,18.639326 24.048372,18.270813 
	C26.807161,15.802821 29.299248,16.733294 30.554363,19.364981 
	C31.364944,21.064585 30.481819,23.571959 30.333134,26.142197 
	C30.979443,27.668030 33.395069,30.808805 32.644054,32.082691 
	C30.470211,35.769997 27.553938,39.545292 21.776798,39.011848 
z"/>
<path fill="#F9FAFA" opacity="1.000000" stroke="none" 
	d="
M285.914642,29.080074 
	C287.287262,31.133739 288.659912,33.187405 290.286774,35.621426 
	C287.365570,40.155659 286.985626,40.216515 282.479462,36.222401 
	C280.407104,37.129604 278.436920,37.992085 276.466736,38.854561 
	C275.649261,36.327667 274.511993,33.851093 274.104248,31.259729 
	C273.696381,28.667330 274.225098,25.937468 273.937439,23.312323 
	C273.778931,21.865503 272.786011,20.510103 271.887665,18.475840 
	C272.566742,17.842514 273.826111,16.525949 275.242126,15.407695 
	C275.942780,14.854365 276.931946,14.666320 278.958496,13.832422 
	C279.477814,18.990704 279.953491,23.715866 280.409241,28.242880 
	C286.479889,20.751459 287.840942,20.323771 292.535645,25.442270 
	C290.663757,26.557323 288.898315,27.608978 286.669006,28.217453 
	C285.869049,27.645313 285.532959,27.516357 285.196838,27.387403 
	C285.436096,27.951630 285.675385,28.515852 285.914642,29.080074 
z"/>
<path fill="#F5F6F6" opacity="1.000000" stroke="none" 
	d="
M51.601936,25.755007 
	C53.568516,24.277706 55.535099,22.800409 58.441761,20.616924 
	C59.471470,26.356710 60.249882,30.695717 61.192677,35.951031 
	C60.041988,36.581779 57.901203,37.755245 55.760418,38.928711 
	C54.917847,35.552536 54.075279,32.176365 53.155220,28.489689 
	C53.042076,30.643463 49.225792,32.166569 53.097115,35.085369 
	C51.176731,36.540630 49.327728,37.941799 47.478722,39.342972 
	C46.901943,39.270767 46.325161,39.198563 45.748383,39.126358 
	C45.498856,35.115128 45.552914,31.052246 44.882618,27.112606 
	C44.498508,24.855047 47.574482,20.946854 42.347523,20.398149 
	C42.210133,20.383726 41.905048,18.843178 42.168606,18.634882 
	C44.011841,17.178123 45.984371,15.884966 47.915516,14.539440 
	C48.947708,16.220095 50.261402,17.798952 50.918262,19.615341 
	C51.397610,20.940880 51.011642,22.579344 50.656982,24.637058 
	C50.260658,26.024563 50.218769,26.853321 50.124485,28.718777 
	C50.939270,27.084312 51.270603,26.419661 51.601936,25.755007 
z"/>
<path fill="#F6F7F7" opacity="1.000000" stroke="none" 
	d="
M326.882141,20.670303 
	C325.867279,20.022692 324.971710,19.793699 323.573975,19.436308 
	C325.759460,17.533787 327.530945,15.991660 329.402557,14.362361 
	C334.403778,17.228338 332.586029,22.234715 333.192535,27.268532 
	C333.753052,26.241762 333.885223,25.610785 334.264801,25.370325 
	C336.100769,24.207281 338.003174,23.149191 339.882050,22.053892 
	C340.579742,24.057449 341.466614,26.018883 341.924530,28.075823 
	C342.433472,30.361868 342.551331,32.734978 342.979126,36.202450 
	C342.413910,36.612988 340.662964,37.884735 337.694550,40.040764 
	C336.826569,35.659966 336.132141,32.155140 335.147705,27.186623 
	C334.529663,30.667942 334.129547,32.921871 333.729401,35.175804 
	C334.159363,35.328026 334.589294,35.480251 335.019257,35.632477 
	C333.160339,36.841431 331.301422,38.050385 328.977173,39.561993 
	C325.385590,33.406078 327.795746,27.045225 326.882141,20.670303 
z"/>
<path fill="#F6F8F8" opacity="1.000000" stroke="none" 
	d="
M386.203247,24.591782 
	C388.320129,24.094557 390.262695,23.287352 393.173584,22.077785 
	C393.715057,24.073957 394.437042,26.373331 394.945953,28.718925 
	C395.404175,30.830893 395.628845,32.993538 396.105774,36.108665 
	C392.616333,40.369907 392.293060,40.410717 389.125305,35.791084 
	C388.243134,36.508778 387.362091,37.189667 386.520905,37.916683 
	C384.114685,39.996334 382.691559,39.231087 382.024628,36.363625 
	C381.660126,34.796326 381.474213,33.181568 381.025391,31.641365 
	C380.509216,29.869967 379.791534,28.157299 379.057404,26.132307 
	C384.332764,22.367311 384.332764,22.367311 386.203247,24.591782 
z"/>
<path fill="#F4F6F5" opacity="1.000000" stroke="none" 
	d="
M122.255005,37.754814 
	C120.392303,32.943272 120.613312,32.477016 127.050941,27.199736 
	C125.848091,27.120201 124.938469,26.914549 124.079231,27.043831 
	C123.205795,27.175247 122.382034,27.636818 120.448753,28.361633 
	C122.732109,23.835129 125.373329,21.730196 129.475632,22.095072 
	C133.508163,22.453741 134.385025,25.649925 134.954025,28.939962 
	C135.320663,31.059956 135.667160,33.183434 136.080505,35.650307 
	C134.236984,35.408363 133.174911,41.750668 130.018478,38.036110 
	C127.132431,38.036110 124.834633,38.036110 122.255005,37.754814 
z"/>
<path fill="#F4F6F6" opacity="1.000000" stroke="none" 
	d="
M367.827576,26.656382 
	C368.173157,29.708624 368.408173,32.353058 368.643219,34.997498 
	C367.913940,37.318295 366.102325,40.324299 363.428009,38.631374 
	C359.799957,38.003498 356.549072,38.413925 355.209290,37.005913 
	C352.444489,34.100269 354.229645,31.294851 361.476166,26.819180 
	C358.443207,27.163376 356.334106,27.402729 354.225006,27.642080 
	C354.002563,27.258276 353.780090,26.874472 353.557648,26.490665 
	C356.136780,25.006214 358.635193,22.577429 361.321533,22.347929 
	C363.327637,22.176538 365.576324,24.844818 367.827576,26.656382 
z"/>
<path fill="#F7F9F9" opacity="1.000000" stroke="none" 
	d="
M260.849762,26.648323 
	C261.186951,29.691532 261.412811,32.327229 261.734222,36.077396 
	C260.699005,36.729359 259.080505,40.493401 255.082779,38.490376 
	C252.729950,38.030411 249.510178,38.366806 248.204254,36.945152 
	C245.462646,33.960567 247.067841,31.486904 254.386612,26.803879 
	C251.426605,27.166964 249.294693,27.428471 247.162796,27.689978 
	C246.945786,27.300901 246.728790,26.911823 246.511780,26.522747 
	C249.100952,25.021984 251.605896,22.572817 254.307068,22.332863 
	C256.319275,22.154114 258.585419,24.834028 260.849762,26.648323 
z"/>
<path fill="#F6F8F7" opacity="1.000000" stroke="none" 
	d="
M74.808258,23.710117 
	C80.890518,20.162758 84.774773,22.411209 85.078140,28.973854 
	C85.172997,31.025829 86.118896,33.038460 86.824150,35.612640 
	C85.115189,35.968876 83.669563,41.952820 79.409286,37.124142 
	C79.287743,37.237419 79.178375,37.368481 79.042847,37.461353 
	C76.421387,39.257671 73.614174,39.989693 72.265900,36.366238 
	C70.841354,32.537785 73.402016,30.302156 76.639854,28.758400 
	C77.047760,28.563913 77.315697,28.075867 78.440971,26.885513 
	C75.841980,27.261787 74.171104,27.503693 70.802681,27.991364 
	C72.629051,26.028406 73.576042,25.010592 74.808258,23.710117 
z"/>
<path fill="#F4F5F4" opacity="1.000000" stroke="none" 
	d="
M146.022308,25.941956 
	C146.608994,24.443283 147.568604,23.001234 148.650787,21.375004 
	C147.983047,21.174200 147.180466,20.932844 146.676849,20.781395 
	C148.422562,18.927071 150.265945,16.968996 152.714127,14.368504 
	C153.822464,17.135052 154.742416,19.431355 155.734985,21.908949 
	C156.533569,22.011650 157.651382,22.155409 158.507889,22.265564 
	C157.013931,25.474380 155.518661,28.686043 153.980209,31.990404 
	C156.371857,33.013981 157.612991,33.545162 159.214142,34.230419 
	C156.477127,36.095772 154.127487,37.697128 150.457214,40.198540 
	C149.885529,35.822845 149.361511,32.583229 149.075653,29.322731 
	C148.914948,27.489565 149.341934,25.467598 146.022308,25.941956 
z"/>
<path fill="#F6F7F7" opacity="1.000000" stroke="none" 
	d="
M437.351471,22.053921 
	C440.044037,23.291058 442.347107,24.544106 445.175842,26.083160 
	C442.293823,29.171028 440.454102,31.142164 437.794708,33.991524 
	C440.680298,33.598000 442.224518,33.387409 443.768707,33.176819 
	C443.864838,33.447609 443.960938,33.718399 444.057037,33.989189 
	C443.124237,34.743050 442.180298,35.483578 441.260864,36.253372 
	C439.020905,38.128914 436.981842,40.649532 433.848389,37.393940 
	C430.804108,34.231010 429.833832,29.018133 432.216614,26.343555 
	C433.624084,24.763693 435.368866,23.484343 437.351471,22.053921 
z"/>
<path fill="#F3F5F5" opacity="1.000000" stroke="none" 
	d="
M97.490601,27.963394 
	C97.102974,27.104996 96.781075,25.907795 97.209572,25.500977 
	C98.482491,24.292454 100.050774,23.395029 101.806190,22.163778 
	C104.375999,25.008574 110.120766,19.297407 111.783585,26.295227 
	C110.160294,27.975744 108.564598,30.836945 104.583832,26.774555 
	C105.106705,30.152248 105.506935,32.737701 106.032303,36.131516 
	C105.371162,36.622795 103.715981,37.852718 101.200333,39.722038 
	C100.379990,37.094360 99.664864,34.948231 99.046478,32.774582 
	C98.597725,31.197206 98.277069,29.583395 97.490601,27.963394 
z"/>
<path fill="#F8FAF9" opacity="1.000000" stroke="none" 
	d="
M309.448853,38.833942 
	C303.767273,39.340744 302.782684,35.440910 302.052368,31.581635 
	C301.101105,26.554762 304.567566,24.050968 308.360596,22.377600 
	C311.602783,20.947245 313.694305,23.028929 315.406403,26.981989 
	C312.635254,27.429243 310.174072,27.826475 307.466278,28.263506 
	C307.280365,32.371246 308.817780,33.715225 315.756531,33.285160 
	C313.380463,35.449783 311.599884,37.071896 309.448853,38.833942 
z"/>
<path fill="#F6F6F6" opacity="1.000000" stroke="none" 
	d="
M409.006989,29.465149 
	C408.028412,28.409496 407.064331,27.778950 405.549622,26.788246 
	C407.789642,25.099768 409.714142,22.481895 411.815491,22.331289 
	C415.198090,22.088854 418.697418,23.474745 422.147430,24.172705 
	C422.197906,24.951050 422.248383,25.729395 422.298828,26.507740 
	C419.939941,27.469091 417.581024,28.430445 414.097748,29.850037 
	C414.373260,30.656588 415.122589,32.850040 415.871918,35.043491 
	C416.206909,34.930450 416.541901,34.817410 416.876862,34.704372 
	C416.809723,35.008560 416.840973,35.489292 416.660370,35.589909 
	C414.626007,36.723602 412.559082,37.798912 410.500916,38.889893 
	C410.007782,35.890015 409.514618,32.890137 409.006989,29.465149 
z"/>
<path fill="#F1F2F2" opacity="1.000000" stroke="none" 
	d="
M169.943726,28.439671 
	C169.334824,27.391808 168.492859,26.348392 168.729782,25.955406 
	C169.666763,24.401186 170.941818,23.050770 171.927612,21.828064 
	C176.890350,23.362310 175.623840,26.870573 176.058182,29.772692 
	C176.341766,31.667519 177.323303,33.457890 178.256912,36.022160 
	C176.921799,36.683998 174.702026,37.784359 172.482269,38.884720 
	C171.981049,36.410610 171.498596,33.932468 170.968887,31.464468 
	C170.771576,30.545111 170.463821,29.649462 169.943726,28.439671 
z"/>
<path fill="#000000" opacity="1.000000" stroke="none" 
	d="
M230.789352,27.540386 
	C230.300095,28.789299 229.987549,29.682043 229.445679,31.229912 
	C228.155624,27.707800 227.047440,24.682241 225.880539,21.496363 
	C227.939072,21.292767 229.733185,21.115322 232.172989,20.874016 
	C231.725830,23.211920 231.345947,25.198069 230.789352,27.540386 
z"/>
<path fill="#000000" opacity="1.000000" stroke="none" 
	d="
M286.091003,28.872061 
	C285.675385,28.515852 285.436096,27.951630 285.196838,27.387403 
	C285.532959,27.516357 285.869049,27.645313 286.394653,27.997126 
	C286.478577,28.368002 286.372986,28.516024 286.091003,28.872061 
z"/>
<path fill="#000000" opacity="1.000000" stroke="none" 
	d="
M51.441277,25.544334 
	C51.270603,26.419661 50.939270,27.084312 50.124485,28.718777 
	C50.218769,26.853321 50.260658,26.024563 50.615433,25.066832 
	C51.045750,25.069792 51.163181,25.201727 51.441277,25.544334 
z"/>
</svg>